<svg width="800" height="480" viewBox="0 0 800 480" fill="none" xmlns="http://www.w3.org/2000/svg">
  <rect width="800" height="480" rx="28" fill="#0D0D0F"/>
  <rect x="32" y="32" width="736" height="416" rx="22" stroke="#2B2B31"/>
  <rect x="80" y="92" width="640" height="74" rx="14" fill="#141418"/>
  <rect x="108" y="120" width="200" height="10" rx="5" fill="#F4F4F5" fill-opacity="0.85"/>
  <rect x="80" y="188" width="640" height="200" rx="16" fill="#121216"/>
  <rect x="110" y="220" width="580" height="36" rx="10" fill="#0C0C0F" stroke="#32323A"/>
  <rect x="110" y="268" width="580" height="36" rx="10" fill="#0C0C0F" stroke="#32323A"/>
  <rect x="110" y="316" width="580" height="36" rx="10" fill="#0C0C0F" stroke="#32323A"/>
  <circle cx="132" cy="238" r="10" fill="#F4F4F5"/>
  <circle cx="132" cy="286" r="10" fill="#E3E3E8" fill-opacity="0.8"/>
  <circle cx="132" cy="334" r="10" fill="#CDCDD5" fill-opacity="0.65"/>
  <rect x="156" y="234" width="230" height="8" rx="4" fill="#E3E3E8" fill-opacity="0.85"/>
  <rect x="156" y="282" width="210" height="8" rx="4" fill="#E3E3E8" fill-opacity="0.75"/>
  <rect x="156" y="330" width="190" height="8" rx="4" fill="#E3E3E8" fill-opacity="0.65"/>
  <rect x="606" y="230" width="62" height="12" rx="6" fill="#F4F4F5" fill-opacity="0.9"/>
  <rect x="606" y="278" width="62" height="12" rx="6" fill="#E3E3E8" fill-opacity="0.75"/>
  <rect x="606" y="326" width="62" height="12" rx="6" fill="#CDCDD5" fill-opacity="0.6"/>
</svg>
