<svg width="800" height="480" viewBox="0 0 800 480" fill="none" xmlns="http://www.w3.org/2000/svg">
  <rect width="800" height="480" rx="28" fill="#0D0D0F"/>
  <rect x="32" y="32" width="736" height="416" rx="22" stroke="#2B2B31"/>
  <circle cx="220" cy="200" r="68" fill="#141418" stroke="#31313A"/>
  <circle cx="220" cy="180" r="20" fill="#F4F4F5" fill-opacity="0.9"/>
  <rect x="182" y="210" width="76" height="44" rx="22" fill="#D9D9DE" fill-opacity="0.75"/>
  <circle cx="400" cy="250" r="68" fill="#141418" stroke="#31313A"/>
  <circle cx="400" cy="230" r="20" fill="#F4F4F5" fill-opacity="0.9"/>
  <rect x="362" y="260" width="76" height="44" rx="22" fill="#D9D9DE" fill-opacity="0.75"/>
  <circle cx="580" cy="200" r="68" fill="#141418" stroke="#31313A"/>
  <circle cx="580" cy="180" r="20" fill="#F4F4F5" fill-opacity="0.9"/>
  <rect x="542" y="210" width="76" height="44" rx="22" fill="#D9D9DE" fill-opacity="0.75"/>
  <path d="M280 205L340 233" stroke="#F4F4F5" stroke-opacity="0.8" stroke-width="8" stroke-linecap="round"/>
  <path d="M460 233L520 205" stroke="#F4F4F5" stroke-opacity="0.8" stroke-width="8" stroke-linecap="round"/>
  <rect x="170" y="334" width="460" height="64" rx="14" fill="#121216"/>
  <rect x="194" y="356" width="280" height="10" rx="5" fill="#E7E7EB" fill-opacity="0.85"/>
  <rect x="194" y="372" width="170" height="8" rx="4" fill="#C9C9D1" fill-opacity="0.6"/>
</svg>
